HIERARCHY
ROOT SpineBase
{
  OFFSET 0.000000 0.000000 0.000000
  CHANNELS 6 Xposition Yposition Zposition Zrotation Xrotation Yrotation
  JOINT SpineMid
  {
    OFFSET 0.000000 29.217110 0.000000
    CHANNELS 3 Zrotation Xrotation Yrotation
    JOINT SpineShoulder
    {
      OFFSET -0.254517 21.727265 -0.619730
      CHANNELS 3 Zrotation Xrotation Yrotation
      JOINT Neck
      {
        OFFSET -0.214297 7.197389 -0.488625
        CHANNELS 3 Zrotation Xrotation Yrotation
        JOINT Head
        {
          OFFSET 3.229778 12.543909 4.719073
          CHANNELS 3 Zrotation Xrotation Yrotation
          End Site
          {
            OFFSET 0 0 0
          }
        }
      }
      JOINT ShoulderLeft
      {
        OFFSET -5.761313 -4.769489 -11.733025
        CHANNELS 3 Zrotation Xrotation Yrotation
        JOINT ElbowLeft
        {
          OFFSET -1.719198 -26.359913 -4.724103
          CHANNELS 3 Zrotation Xrotation Yrotation
          JOINT WristLeft
          {
            OFFSET 2.977928 -23.663294 -1.922753
            CHANNELS 3 Zrotation Xrotation Yrotation
            JOINT HandLeft
            {
              OFFSET 1.281119 -5.747113 3.518360
              CHANNELS 3 Zrotation Xrotation Yrotation
              JOINT HandTipLeft
              {
                OFFSET 2.251162 -6.496177 0.011740
                CHANNELS 3 Zrotation Xrotation Yrotation
                End Site
                {
                  OFFSET 0 0 0
                }
              }
              JOINT ThumbLeft
              {
                OFFSET 4.427608 1.799853 -0.782486
                CHANNELS 3 Zrotation Xrotation Yrotation
                End Site
                {
                  OFFSET 0 0 0
                }
              }
            }
          }
        }
      }
      JOINT ShoulderRight
      {
        OFFSET 13.433720 -1.293905 7.360160
        CHANNELS 3 Zrotation Xrotation Yrotation
        JOINT ElbowRight
        {
          OFFSET 3.817172 -29.832077 3.858659
          CHANNELS 3 Zrotation Xrotation Yrotation
          JOINT WristRight
          {
            OFFSET -0.142528 -23.205491 2.332731
            CHANNELS 3 Zrotation Xrotation Yrotation
            JOINT HandRight
            {
              OFFSET -0.094505 -6.287690 -1.782817
              CHANNELS 3 Zrotation Xrotation Yrotation
              JOINT HandTipRight
              {
                OFFSET 0.265140 -0.209901 -0.150497
                CHANNELS 3 Zrotation Xrotation Yrotation
                End Site
                {
                  OFFSET 0 0 0
                }
              }
              JOINT ThumbRight
              {
                OFFSET 0.248468 0.881930 -0.628309
                CHANNELS 3 Zrotation Xrotation Yrotation
                End Site
                {
                  OFFSET 0 0 0
                }
              }
            }
          }
        }
      }
    }
  }
  JOINT HipLeft
  {
    OFFSET -6.345344 1.097235 -6.993384
    CHANNELS 3 Zrotation Xrotation Yrotation
    JOINT KneeLeft
    {
      OFFSET 0.551864 -33.020251 3.877867
      CHANNELS 3 Zrotation Xrotation Yrotation
      JOINT AnkleLeft
      {
        OFFSET -2.050687 -30.710689 3.047281
        CHANNELS 3 Zrotation Xrotation Yrotation
        JOINT FootLeft
        {
          OFFSET 3.118156 -6.609390 -1.242113
          CHANNELS 3 Zrotation Xrotation Yrotation
          End Site
          {
            OFFSET 0 0 0
          }
        }
      }
    }
  }
  JOINT HipRight
  {
    OFFSET 4.542666 0.386890 0.600261
    CHANNELS 3 Zrotation Xrotation Yrotation
    JOINT KneeRight
    {
      OFFSET 12.545832 -16.249127 9.194139
      CHANNELS 3 Zrotation Xrotation Yrotation
      JOINT AnkleRight
      {
        OFFSET -10.728368 -38.613782 2.195998
        CHANNELS 3 Zrotation Xrotation Yrotation
        JOINT FootRight
        {
          OFFSET 5.166317 -2.238865 -9.740038
          CHANNELS 3 Zrotation Xrotation Yrotation
          End Site
          {
            OFFSET 0 0 0
          }
        }
      }
    }
  }
}
MOTION
Frames: 9
Frame Time: 0.033333
86.287432 70.829685 331.611289 -0.000000 0.000000 -34.893149 0.000000 0.000000 34.893149 -0.000000 0.000000 0.000000 -0.000000 0.000000 0.000000 0.000000 0.000000 0.000000 -0.000000 0.000000 0.000000 -0.000000 0.000000 0.000000 -0.000000 0.000000 0.000000 -0.000000 0.000000 0.000000 0.000000 0.000000 0.000000 0.000000 0.000000 0.000000 -0.000000 0.000000 0.000000 -0.000000 0.000000 0.000000 -0.000000 0.000000 0.000000 -0.000000 0.000000 0.000000 0.000000 0.000000 0.000000 0.000000 0.000000 0.000000 0.000000 0.000000 34.893149 -0.000000 0.000000 0.000000 -0.000000 0.000000 0.000000 0.000000 0.000000 0.000000 0.000000 0.000000 34.893149 -0.000000 0.000000 0.000000 -0.000000 0.000000 0.000000 0.000000 0.000000 0.000000
86.227759 70.815395 331.626381 -0.037679 0.022987 -34.761893 0.044061 0.002599 34.761900 -0.000000 0.000000 0.000000 -0.000000 0.000000 0.000000 0.000000 0.000000 0.000000 -0.000000 0.000000 0.000000 0.969224 -0.403607 -0.126036 -2.342833 3.033431 -0.078516 2.683392 -3.849156 -0.063354 0.000000 0.000000 0.000000 0.000000 0.000000 0.000000 -0.000000 0.000000 0.000000 -0.000000 0.000000 0.000000 -2.591489 4.782120 0.761938 -20.613900 -6.537363 15.704405 0.000000 0.000000 0.000000 0.000000 0.000000 0.000000 0.044061 0.002599 34.761900 -0.000000 0.000000 0.000000 -0.000000 0.000000 0.000000 0.000000 0.000000 0.000000 -11.547342 -2.082283 32.002934 12.678842 -4.479942 3.254492 -5.758674 -8.545642 -5.388469 0.000000 0.000000 0.000000
86.177390 70.800924 331.640682 -0.064198 0.041316 -34.641801 0.076303 0.002501 34.641822 -0.000000 0.000000 0.000000 -0.000000 0.000000 0.000000 0.000000 0.000000 0.000000 -0.000000 0.000000 0.000000 1.833562 -0.656670 -0.220788 -4.460848 5.472921 -0.145326 4.941217 -7.051456 0.098366 0.000000 0.000000 0.000000 0.000000 0.000000 0.000000 -0.000000 0.000000 0.000000 -0.000000 0.000000 0.000000 -3.932755 7.352284 1.234476 -30.324302 -10.014874 25.129535 0.000000 0.000000 0.000000 0.000000 0.000000 0.000000 0.076303 0.002501 34.641822 -0.000000 0.000000 0.000000 -0.000000 0.000000 0.000000 0.000000 0.000000 0.000000 -19.756504 -3.149758 29.724668 22.222266 -7.144344 6.266430 -14.064880 -18.929410 -13.229325 0.000000 0.000000 0.000000
86.136325 70.786271 331.654192 -0.079567 0.054993 -34.533251 0.096722 -0.000197 34.533289 -0.000000 0.000000 0.000000 -0.000000 0.000000 0.000000 0.000000 0.000000 0.000000 -0.000000 0.000000 0.000000 2.608008 -0.766171 -0.290255 -6.359793 7.320273 -0.234498 6.797449 -9.622009 0.385572 0.000000 0.000000 0.000000 0.000000 0.000000 0.000000 -0.000000 0.000000 0.000000 -0.000000 0.000000 0.000000 -4.285816 8.304083 1.372911 -34.932685 -10.804568 32.042021 0.000000 0.000000 0.000000 0.000000 0.000000 0.000000 0.096722 -0.000197 34.533289 -0.000000 0.000000 0.000000 -0.000000 0.000000 0.000000 0.000000 0.000000 0.000000 -25.429667 -3.664620 28.067268 29.247445 -8.669206 8.711787 -25.175431 -29.001698 -23.543568 0.000000 0.000000 0.000000
86.104564 70.771436 331.666910 -0.083798 0.064021 -34.436584 0.105316 -0.005414 34.436636 -0.000000 0.000000 0.000000 -0.000000 0.000000 0.000000 0.000000 0.000000 0.000000 -0.000000 0.000000 0.000000 3.304668 -0.735346 -0.338869 -8.044224 8.581373 -0.375505 8.256730 -11.583663 0.722406 0.000000 0.000000 0.000000 0.000000 0.000000 0.000000 -0.000000 0.000000 0.000000 -0.000000 0.000000 0.000000 -3.715337 7.820526 1.166910 -37.641634 -9.831162 38.134373 0.000000 0.000000 0.000000 0.000000 0.000000 0.000000 0.105316 -0.005414 34.436636 -0.000000 0.000000 0.000000 -0.000000 0.000000 0.000000 0.000000 0.000000 0.000000 -29.284772 -3.898335 26.910952 34.327634 -9.541448 10.568334 -37.093262 -36.127118 -34.171867 0.000000 0.000000 0.000000
86.082107 70.756420 331.678836 -0.076900 0.068406 -34.352102 0.102087 -0.013082 34.352160 -0.000000 0.000000 0.000000 -0.000000 0.000000 0.000000 0.000000 0.000000 0.000000 -0.000000 0.000000 0.000000 3.933331 -0.563794 -0.369867 -9.519048 9.262299 -0.593113 9.310903 -12.960761 1.052997 0.000000 0.000000 0.000000 0.000000 0.000000 0.000000 -0.000000 0.000000 0.000000 -0.000000 0.000000 0.000000 -2.114818 5.740186 0.610540 -39.999157 -7.454644 44.262971 0.000000 0.000000 0.000000 0.000000 0.000000 0.000000 0.102087 -0.013082 34.352160 -0.000000 0.000000 0.000000 -0.000000 0.000000 0.000000 0.000000 0.000000 0.000000 -31.813720 -3.990437 26.142651 37.859930 -10.055004 11.893134 -46.199464 -39.839164 -41.507668 0.000000 0.000000 0.000000
86.069214 70.735162 331.693739 -0.052419 0.063722 -34.293712 0.079209 -0.023110 34.293758 -0.000000 0.000000 0.000000 -0.000000 0.000000 0.000000 0.000000 0.000000 0.000000 -0.000000 0.000000 0.000000 5.071176 -0.186781 -0.425245 -11.892869 10.050693 -0.951178 10.888589 -15.279667 1.459398 0.000000 0.000000 0.000000 0.000000 0.000000 0.000000 -0.000000 0.000000 0.000000 -0.000000 0.000000 0.000000 3.675299 -6.926950 -0.728542 -45.521082 3.284468 58.875463 0.000000 0.000000 0.000000 0.000000 0.000000 0.000000 0.079209 -0.023110 34.293758 -0.000000 0.000000 0.000000 -0.228135 0.694076 0.371633 0.000000 0.000000 0.000000 -33.166881 -4.003579 25.753709 39.986546 -10.407356 12.702620 -55.188785 -43.304849 -46.713344 0.000000 0.000000 0.000000
86.064484 70.716108 331.703448 -0.005940 0.042455 -34.247306 0.028802 -0.031751 34.247316 -0.000000 0.000000 0.000000 -0.624851 0.635919 0.074545 0.000000 0.000000 0.000000 -0.000000 0.000000 0.000000 5.749033 0.345921 -0.438484 -13.477737 9.677100 -1.541184 11.640672 -15.880769 1.881858 0.000000 0.000000 0.000000 0.000000 0.000000 0.000000 -0.000000 0.000000 0.000000 -0.000000 0.000000 0.000000 8.720883 -15.379432 -1.108852 -52.392473 8.057233 69.539021 0.000000 0.000000 0.000000 0.000000 0.000000 0.000000 0.028802 -0.031751 34.247316 -0.000000 0.000000 0.000000 -0.252120 1.027001 0.533820 0.000000 0.000000 0.000000 -32.763617 -3.942529 25.879890 39.643039 -10.510035 12.573646 -40.356923 -38.438818 -28.291871 0.000000 0.000000 0.000000
86.071068 70.703050 331.711681 0.035219 0.037949 -34.158208 -0.007836 -0.051177 34.158193 -0.000000 0.000000 0.000000 -0.800911 0.753140 0.112176 0.000000 0.000000 0.000000 -0.000000 0.000000 0.000000 6.083261 0.923086 -0.424521 -14.401732 8.199387 -2.344123 11.153910 -14.114059 2.429579 0.000000 0.000000 0.000000 0.000000 0.000000 0.000000 -0.000000 0.000000 0.000000 -0.000000 0.000000 0.000000 15.691290 -24.672485 -0.691509 -61.088872 12.636463 80.871287 0.000000 0.000000 0.000000 0.000000 0.000000 0.000000 -0.007836 -0.051177 34.158193 -0.000000 0.000000 0.000000 -0.358899 1.560570 0.807735 0.000000 0.000000 0.000000 -32.385370 -3.857188 25.973141 39.017314 -10.625328 12.354010 -26.383589 -27.752795 -13.051637 0.000000 0.000000 0.000000
